<svg width="1024" height="1024" viewBox="0 0 1024 1024" fill="none" xmlns="http://www.w3.org/2000/svg">
<rect x="4" y="4" width="1016" height="1016" rx="16" fill="#5343B5" stroke="white" stroke-width="8"/>
<path d="M400.176 355.391V405.068H330.473C326.054 405.068 322.473 408.65 322.473 413.068V470.745C322.473 475.163 326.054 478.745 330.473 478.745H400.176V695.044C400.176 724.003 402.803 746.007 408.85 759.916C414.532 772.983 421.782 783.837 430.748 792.208C440.18 801.049 451.81 807.968 465.447 813.082C465.492 813.099 465.537 813.115 465.581 813.131C465.63 813.148 465.678 813.165 465.727 813.181C479.642 817.82 496.862 820 517.122 820C543.333 820 568.954 814.696 593.932 804.15C618.807 793.647 641.212 779.264 661.112 761.021C661.141 760.995 661.17 760.968 661.199 760.94C681.059 742.184 696.852 721.152 708.507 697.853C720.791 673.829 726.991 648.832 726.991 622.948C726.991 590.01 717.465 564.509 696.72 548.583C677.361 532.788 652.501 525.228 622.862 525.228C611.838 525.228 600.818 526.051 589.807 527.694C579.28 528.812 569.248 530.763 559.724 533.564C555.899 534.689 553.486 538.458 554.066 542.403L562.077 596.876C562.408 599.125 563.68 601.127 565.576 602.382C567.471 603.637 569.811 604.026 572.011 603.453C583.553 600.442 596.217 598.905 610.045 598.905C624.271 598.905 633.447 602.048 639.016 606.933C644.384 611.642 647.706 619.133 647.706 630.959C647.706 650.454 641.407 669.136 628.393 687.156C628.364 687.196 628.336 687.236 628.308 687.277C615.651 705.503 599.45 720.461 579.613 732.172C559.893 743.284 539.896 748.726 519.525 748.726C500.619 748.726 490.569 744.335 485.919 738.369C483.68 735.138 481.603 729.89 480.125 722.008C478.644 714.111 477.858 704.092 477.858 691.84V478.745H747.028C751.446 478.745 755.028 475.163 755.028 470.745V413.068C755.028 408.65 751.446 405.068 747.028 405.068H477.858V352.187C477.858 320.466 475.196 295.268 469.528 277.044C464.479 258.599 456.763 243.472 446.042 232.149C428.09 213.009 402.473 204 370.526 204C353.399 204 336.779 205.93 320.685 209.807C305.181 213.137 289.223 218.379 272.819 225.487C270.87 226.332 269.337 227.917 268.558 229.893C267.778 231.869 267.817 234.074 268.665 236.022L290.294 285.688C292.004 289.615 296.503 291.498 300.501 289.961C307.139 287.408 315.16 284.815 324.603 282.191C324.693 282.167 324.782 282.14 324.871 282.112C334.277 279.142 343.612 277.677 352.903 277.677C375.499 277.677 386.636 284.584 391.21 295.258C391.216 295.272 391.222 295.286 391.228 295.3C391.237 295.319 391.245 295.337 391.253 295.356C396.984 308.251 400.176 328.017 400.176 355.391Z" fill="white" stroke="#D0CCE9" stroke-width="16" stroke-linejoin="round"/>
</svg>
